<svg width="17" height="17" viewBox="0 0 17 17" fill="none" xmlns="http://www.w3.org/2000/svg">
<path d="M4.40759 8.12937C4.30521 8.2325 4.24763 8.37184 4.24763 8.5172C4.24763 8.66244 4.30521 8.8019 4.40759 8.9049L7.89459 12.3862C8.09397 12.5871 8.36517 12.7002 8.64816 12.7002C8.93114 12.7002 9.20234 12.5871 9.40172 12.3862L12.8887 8.9049C12.9911 8.8019 13.0487 8.66244 13.0487 8.5172C13.0487 8.37184 12.9911 8.2325 12.8887 8.12937C12.7855 8.02527 12.6449 7.9667 12.4982 7.9667C12.3515 7.9667 12.2109 8.02527 12.1077 8.12937L9.19819 11.0499V4.4499C9.19819 4.25335 9.09334 4.07179 8.92319 3.97357C8.75303 3.87536 8.54334 3.87536 8.37319 3.97357C8.20303 4.07179 8.09819 4.25336 8.09819 4.4499V11.0776L5.18872 8.12953C5.08547 8.02542 4.9449 7.96686 4.79819 7.96686C4.65147 7.96686 4.51091 8.02542 4.40766 8.12953L4.40759 8.12937ZM0.398251 8.2999C0.398251 10.488 1.26744 12.5864 2.81457 14.1337C4.3618 15.6808 6.46029 16.55 8.64834 16.55C10.8364 16.55 12.9349 15.6808 14.4821 14.1337C16.0292 12.5864 16.8984 10.488 16.8984 8.2999C16.8984 6.11184 16.0292 4.01336 14.4821 2.46613C12.9349 0.918993 10.8364 0.0498047 8.64834 0.0498047C7.20018 0.0498047 5.77753 0.431002 4.52334 1.15508C3.26916 1.87917 2.22771 2.92062 1.50363 4.1748C0.779543 5.42899 0.398346 6.85164 0.398346 8.2998L0.398251 8.2999ZM1.49825 8.2999C1.49825 6.40362 2.25156 4.58504 3.59243 3.24398C4.9333 1.90312 6.75194 1.1498 8.64834 1.1498C10.5447 1.1498 12.3632 1.90312 13.7043 3.24398C15.0451 4.58485 15.7984 6.4035 15.7984 8.2999C15.7984 10.1963 15.0451 12.0148 13.7043 13.3558C12.3634 14.6967 10.5447 15.45 8.64834 15.45C6.75194 15.45 4.93349 14.6967 3.59243 13.3558C2.25156 12.0149 1.49825 10.1963 1.49825 8.2999Z" fill="black"/>
</svg>
