<svg width="19" height="19" viewBox="0 0 19 19" fill="none" xmlns="http://www.w3.org/2000/svg">
<path d="M18.8266 17.4876L16.6006 15.2676V8.91379C16.6006 5.90172 14.5666 3.35779 11.8006 2.57162V2.31367C11.8006 1.82764 11.6085 1.3716 11.2785 1.04764C10.9426 0.705716 10.4866 0.513672 10.0006 0.513672C9.01056 0.513672 8.20056 1.32367 8.20056 2.31367V2.57162C5.43453 3.35765 3.40056 5.90162 3.40056 8.91379V15.2676L1.17453 17.4936C1.00056 17.6676 0.952474 17.9257 1.04247 18.1476C1.1385 18.3697 1.36055 18.5137 1.60054 18.5137H18.4005C18.6405 18.5137 18.8626 18.3697 18.9526 18.1416C19.0485 17.9197 18.9945 17.6616 18.8266 17.4876H18.8266ZM9.40043 2.31379C9.40043 1.98379 9.67043 1.71379 10.0004 1.71379C10.1625 1.71379 10.3065 1.77379 10.4265 1.89982C10.5404 2.00776 10.6004 2.15174 10.6004 2.31378V2.34378C10.4025 2.32584 10.2044 2.31378 10.0004 2.31378C9.79647 2.31378 9.59836 2.32584 9.40043 2.34378L9.40043 2.31379ZM3.0466 17.3138L4.42056 15.9398C4.53454 15.8258 4.60056 15.6758 4.60056 15.5138V8.91379C4.60056 5.93775 7.02453 3.51379 10.0006 3.51379C12.9766 3.51379 15.4006 5.93775 15.4006 8.91379V15.5138C15.4006 15.6758 15.4666 15.8258 15.5745 15.9398L16.9545 17.3138H3.0466Z" fill="white"/>
</svg>
