<svg width="29" height="29" viewBox="0 0 29 29" fill="none" xmlns="http://www.w3.org/2000/svg">
<path d="M14.7271 9.82227L14.6445 16.4556H13.5845L13.4956 9.82227H14.7271ZM13.4575 18.4741C13.4575 18.2837 13.5146 18.1229 13.6289 17.9917C13.7474 17.8605 13.9209 17.7949 14.1494 17.7949C14.3737 17.7949 14.5451 17.8605 14.6636 17.9917C14.7863 18.1229 14.8477 18.2837 14.8477 18.4741C14.8477 18.6561 14.7863 18.8127 14.6636 18.9438C14.5451 19.075 14.3737 19.1406 14.1494 19.1406C13.9209 19.1406 13.7474 19.075 13.6289 18.9438C13.5146 18.8127 13.4575 18.6561 13.4575 18.4741Z" fill="black" fill-opacity="0.7"/>
<circle cx="14.1457" cy="14.3205" r="13.4152" stroke="black" stroke-opacity="0.7"/>
</svg>
