<svg width="19" height="19" viewBox="0 0 19 19" fill="none" xmlns="http://www.w3.org/2000/svg">
<path d="M9.50113 0.621094C4.51141 0.621094 0.453125 4.67955 0.453125 9.66909C0.453125 14.6588 4.51158 18.7171 9.50113 18.7171C14.4908 18.7171 18.5491 14.6586 18.5491 9.66909C18.5491 4.67938 14.4907 0.621094 9.50113 0.621094ZM9.50113 1.86898C13.8164 1.86898 17.3011 5.35374 17.3011 9.66898C17.3011 13.9842 13.8164 17.469 9.50113 17.469C5.18589 17.469 1.70112 13.9842 1.70112 9.66898C1.70112 5.35374 5.18589 1.86898 9.50113 1.86898ZM7.87276 4.98898C7.6029 4.99486 7.34304 5.07451 7.1219 5.21314C6.67989 5.49041 6.39305 5.99643 6.38085 6.56834L6.38106 6.56856V6.58792V12.7405V12.7598C6.39325 13.3318 6.68075 13.8364 7.12212 14.115C7.56349 14.3936 8.17089 14.4221 8.67231 14.1344C8.67884 14.1311 8.68537 14.1281 8.69168 14.1246L13.7325 11.0337C14.1896 10.753 14.4929 10.2352 14.4929 9.65893C14.4929 9.08262 14.1896 8.57467 13.7325 8.29393L8.69168 5.20306V5.20328C8.68537 5.20002 8.67884 5.19675 8.67231 5.19371C8.42203 5.05029 8.14259 4.98304 7.8727 4.98891L7.87276 4.98898ZM7.90214 6.22734C7.94502 6.22734 7.99486 6.23975 8.05819 6.27609L13.0794 9.35715C13.1717 9.41395 13.2453 9.51123 13.2453 9.65944C13.2453 9.80743 13.1719 9.91473 13.0794 9.97153L8.05819 13.0526C7.9324 13.1246 7.86275 13.1114 7.78528 13.0622C7.70954 13.0145 7.63642 12.9153 7.62923 12.7405V6.58853C7.63642 6.41377 7.71041 6.31366 7.78528 6.26687C7.82358 6.24293 7.85949 6.22857 7.90237 6.22792L7.90214 6.22734Z" fill="black"/>
</svg>
