<?xml version="1.0" encoding="iso-8859-1"?>
<!-- Generator: Adobe Illustrator 19.0.0, SVG Export Plug-In . SVG Version: 6.00 Build 0)  -->
<svg version="1.1" id="Capa_1" xmlns="http://www.w3.org/2000/svg" xmlns:xlink="http://www.w3.org/1999/xlink" x="0px" y="0px"
	 viewBox="0 0 512 512" style="enable-background:new 0 0 512 512;" xml:space="preserve">
<g>
	<g>
		<g>
			<path d="M256,139.636c-64.266,0-116.364,52.098-116.364,116.364S191.734,372.364,256,372.364S372.364,320.266,372.364,256
				S320.266,139.636,256,139.636z M256,349.091c-51.413,0-93.091-41.678-93.091-93.091c0-51.413,41.678-93.091,93.091-93.091
				s93.091,41.678,93.091,93.091C349.091,307.413,307.413,349.091,256,349.091z"/>
			<path d="M494.895,204.8l-24.669-6.167c-5.016-18.744-12.489-36.743-22.225-53.527l13.149-21.876
				c5.333-7.143,5.333-16.944,0-24.087l-48.291-48.291c-2.77-2.771-6.556-4.285-10.473-4.189c-4.827,0.18-9.521,1.625-13.615,4.189
				L366.778,64c-16.759-9.675-34.716-17.109-53.411-22.109L307.2,17.105C304.524,8.727,299.52,0,290.095,0h-68.189
				c-9.425,0-14.895,8.727-17.105,17.105l-6.167,24.785c-18.695,5-36.652,12.434-53.411,22.109l-21.993-13.149
				c-4.082-2.605-8.777-4.09-13.615-4.305c-3.917-0.096-7.702,1.418-10.473,4.189L50.851,99.142c-5.333,7.143-5.333,16.944,0,24.087
				L64,145.105c-9.737,16.784-17.211,34.782-22.225,53.527L17.105,204.8C8.727,206.895,0,212.48,0,221.905v68.305
				c0,9.425,8.727,14.429,17.105,17.105l24.669,6.167c5.013,18.745,12.487,36.744,22.225,53.527l-13.149,21.76
				c-5.492,7.09-5.492,16.997,0,24.087l48.291,48.291c2.675,2.686,6.334,4.158,10.124,4.073c4.907-0.259,9.687-1.653,13.964-4.073
				L145.222,448c16.759,9.675,34.716,17.109,53.411,22.109l6.167,24.785c2.095,8.378,7.68,17.105,17.105,17.105h68.305
				c9.425,0,14.429-8.727,17.105-17.105l6.167-24.785c18.694-5,36.652-12.434,53.411-22.109l21.993,13.149
				c4.279,2.415,9.057,3.809,13.964,4.073c3.79,0.085,7.449-1.387,10.124-4.073l48.291-48.291c5.492-7.09,5.492-16.998,0-24.087
				L448,366.895c9.739-16.783,17.212-34.782,22.225-53.527l24.669-6.167c8.378-2.676,17.105-7.68,17.105-17.105v-68.189
				C512,212.48,503.273,206.895,494.895,204.8z M488.727,284.742l-23.273,5.935c-8.209,2.033-14.668,8.359-16.873,16.524
				c-4.508,16.745-11.198,32.825-19.898,47.825c-4.157,7.201-4.157,16.072,0,23.273l12.8,21.295l-41.193,41.309l-21.295-12.684
				c-7.201-4.157-16.072-4.157-23.273,0c-14.97,8.651-31.01,15.301-47.709,19.782c-8.268,1.938-14.824,8.227-17.105,16.407
				l-6.051,24.32h-57.6l-6.167-24.32c-2.033-8.209-8.359-14.668-16.524-16.873c-16.699-4.481-32.739-11.131-47.709-19.782
				c-7.201-4.157-16.072-4.157-23.273,0l-21.527,13.033l-40.96-40.611l12.8-21.411c4.157-7.201,4.157-16.072,0-23.273
				C75.189,340.494,68.499,324.414,64,307.665c-2.091-8.194-8.461-14.609-16.64-16.756l-23.273-5.935h-0.815v-57.716l24.087-6.167
				c8.209-2.033,14.668-8.359,16.873-16.524c4.499-16.748,11.189-32.829,19.898-47.825c4.157-7.201,4.157-16.072,0-23.273
				l-12.916-21.411l40.611-40.96l21.527,12.916c7.201,4.157,16.072,4.157,23.273,0c14.966-8.659,31.007-15.31,47.709-19.782
				c8.194-2.091,14.609-8.461,16.756-16.64l6.167-24.32h57.484l6.167,24.32c2.033,8.209,8.359,14.668,16.524,16.873
				c16.702,4.473,32.742,11.124,47.709,19.782c7.201,4.157,16.072,4.157,23.273,0l21.527-12.916l40.96,40.378l-12.684,21.062
				c-4.157,7.201-4.157,16.072,0,23.273c8.7,15.001,15.39,31.08,19.898,47.825c1.921,8.343,8.267,14.957,16.524,17.222l24.087,6.051
				V284.742z"/>
		</g>
	</g>
</g>
<g>
</g>
<g>
</g>
<g>
</g>
<g>
</g>
<g>
</g>
<g>
</g>
<g>
</g>
<g>
</g>
<g>
</g>
<g>
</g>
<g>
</g>
<g>
</g>
<g>
</g>
<g>
</g>
<g>
</g>
</svg>
