<svg width="19" height="20" viewBox="0 0 19 20" fill="none" xmlns="http://www.w3.org/2000/svg">
<path d="M11.9941 3.65706C12.3017 3.78148 12.5994 3.9272 12.8846 4.09194C13.1725 4.25842 13.4486 4.44498 13.7095 4.65015L14.8781 3.97568C14.9029 3.95787 14.9294 3.94287 14.9565 3.93135C15.2922 3.75215 15.6695 3.7188 16.0122 3.81041C16.355 3.90202 16.6649 4.12032 16.8664 4.4435C16.8825 4.46533 16.8964 4.48836 16.9079 4.51207L18.0726 6.5293C18.0876 6.5518 18.1002 6.57484 18.1112 6.59895C18.2904 6.93471 18.3237 7.31199 18.2321 7.65471C18.1405 7.99743 17.9222 8.30788 17.599 8.50945C17.5742 8.52726 17.5484 8.5428 17.5212 8.55552L16.3531 9.22944C16.3686 9.34114 16.3819 9.45404 16.3922 9.56868C16.413 9.79569 16.4239 10.0133 16.4239 10.2213C16.4239 10.4293 16.413 10.6469 16.3922 10.8739C16.3819 10.9886 16.3686 11.1015 16.3531 11.2132L17.5575 11.9084L17.5581 11.9072C17.9037 12.1065 18.1364 12.4291 18.2325 12.7879C18.3281 13.1451 18.2878 13.5402 18.0879 13.8864L18.0867 13.8876L18.0879 13.8881L16.892 15.9595C16.6922 16.3039 16.3701 16.536 16.0125 16.6322C15.6553 16.7278 15.2603 16.6875 14.9141 16.4876L13.7096 15.7923C13.4487 15.9974 13.1734 16.1841 12.8847 16.3505C12.5991 16.5158 12.3019 16.661 11.9937 16.7854V18.1741C11.9937 18.5733 11.8307 18.9367 11.5681 19.1995C11.3055 19.4621 10.9425 19.6251 10.5428 19.6251H8.15294C7.75382 19.6251 7.39087 19.4621 7.12759 19.1995C6.86496 18.9368 6.70197 18.5739 6.70197 18.1741V16.7854C6.39433 16.661 6.09662 16.5153 5.81147 16.3505C5.52352 16.1841 5.2475 15.9975 4.98659 15.7923L3.81792 16.4668C3.79315 16.4846 3.76663 16.4996 3.73957 16.5111C3.40381 16.6903 3.02653 16.7237 2.68381 16.6321C2.34109 16.5405 2.03118 16.3222 1.82962 15.999C1.81355 15.9772 1.79962 15.9541 1.7881 15.9304L0.62345 13.9132C0.60845 13.8907 0.595861 13.8676 0.584879 13.8435C0.405681 13.5078 0.372335 13.1305 0.463943 12.7878C0.555551 12.4451 0.773855 12.1346 1.09703 11.933C1.12181 11.9152 1.14765 11.8997 1.17484 11.887L2.34295 11.213C2.32742 11.1014 2.31416 10.9884 2.30385 10.8738C2.28309 10.6468 2.27211 10.4292 2.27211 10.2212C2.27211 10.0132 2.28309 9.79487 2.30385 9.56855C2.31416 9.4539 2.32742 9.341 2.34295 9.22931L1.13853 8.5341L1.138 8.5353C0.792327 8.33602 0.559698 8.01337 0.463527 7.65457C0.367901 7.29738 0.408214 6.90231 0.608172 6.55609L0.609377 6.55489L0.608172 6.55435L1.80402 4.48301C2.00384 4.13854 2.32595 3.90646 2.68352 3.81029C3.04071 3.71467 3.43578 3.75498 3.782 3.95494L4.98697 4.65015C5.24787 4.44564 5.52375 4.25909 5.81185 4.09194C6.09752 3.92668 6.39471 3.7815 6.70236 3.65706V2.26835C6.70236 1.86858 6.86535 1.50577 7.12798 1.24301C7.39061 0.98037 7.75356 0.817383 8.15333 0.817383H10.5431C10.9423 0.817383 11.3052 0.980374 11.5685 1.24301C11.8311 1.50564 11.9941 1.86858 11.9941 2.26835L11.9941 3.65706ZM9.34846 6.2289C10.451 6.2289 11.4486 6.67582 12.1709 7.39822C12.8931 8.12048 13.3402 9.11881 13.3402 10.2206C13.3402 11.3231 12.8933 12.3208 12.1709 13.043C11.4486 13.7653 10.4503 14.2123 9.34846 14.2123C8.24597 14.2123 7.24832 13.7654 6.52606 13.043C5.8038 12.3208 5.35674 11.3224 5.35674 10.2206C5.35674 9.11813 5.80366 8.12048 6.52606 7.39822C7.24832 6.67595 8.24665 6.2289 9.34846 6.2289ZM11.5482 8.02139C10.9855 7.45863 10.2079 7.1107 9.34846 7.1107C8.48957 7.1107 7.712 7.45863 7.14869 8.02139C6.58592 8.58416 6.23799 9.36176 6.23799 10.2212C6.23799 11.0801 6.58647 11.8576 7.14869 12.4209C7.71145 12.9837 8.48905 13.3316 9.34846 13.3316C10.2074 13.3316 10.9849 12.9832 11.5482 12.4209C12.111 11.8582 12.4589 11.0806 12.4589 10.2212C12.4589 9.36228 12.111 8.58471 11.5482 8.02139ZM12.4445 4.85333C12.1253 4.66904 11.7873 4.51181 11.4331 4.38498C11.2481 4.33262 11.1128 4.16266 11.1128 3.96111V2.26825C11.1128 2.11209 11.049 1.96986 10.9452 1.86618C10.842 1.76306 10.6998 1.69851 10.5436 1.69851H8.15383C7.99767 1.69851 7.85544 1.76306 7.75231 1.86618C7.64865 1.96984 7.58463 2.11208 7.58463 2.26825V3.96111H7.58342C7.58342 4.14258 7.47052 4.31185 7.28972 4.3759C6.92677 4.5038 6.57949 4.66384 6.25285 4.85336C5.91991 5.04568 5.6065 5.26815 5.31736 5.51631L5.31683 5.51577C5.17969 5.63323 4.97812 5.658 4.81286 5.56305L3.38037 4.73591C3.35908 4.72613 3.33778 4.71461 3.31823 4.70082C3.18979 4.63573 3.04461 4.62475 2.91163 4.66051C2.77744 4.6968 2.65583 4.78091 2.57695 4.90533C2.56891 4.92086 2.55967 4.93586 2.54989 4.95086L1.38524 6.9681C1.37654 6.98591 1.36622 7.00386 1.35471 7.02046C1.28962 7.1489 1.27931 7.29408 1.31439 7.42705C1.35069 7.56125 1.43479 7.68286 1.55921 7.76174C1.5777 7.77152 1.59604 7.78196 1.61332 7.79455L3.02507 8.60963C3.19328 8.69548 3.29293 8.88445 3.25717 9.08027C3.22208 9.26924 3.19556 9.4581 3.17828 9.64759C3.16221 9.82438 3.15351 10.0156 3.15351 10.2213C3.15351 10.4269 3.16221 10.6182 3.17828 10.7951C3.19556 10.9846 3.22207 11.1735 3.25717 11.3624C3.28944 11.5404 3.20935 11.727 3.04342 11.822L1.57691 12.6687C1.44271 12.7459 1.35231 12.8732 1.31428 13.0154C1.27798 13.1519 1.29004 13.3 1.35914 13.4307L1.36946 13.4475L2.56411 15.5171H2.5629L2.56411 15.5183C2.64125 15.6525 2.76862 15.7429 2.91084 15.7815C3.05307 15.8195 3.20923 15.8045 3.34397 15.7267L4.78798 14.8932C4.94749 14.7873 5.16406 14.7948 5.31674 14.9255C5.60642 15.1738 5.91927 15.3961 6.25222 15.5884C6.57137 15.7727 6.90941 15.93 7.26365 16.0568C7.44861 16.1092 7.58387 16.2791 7.58387 16.4807V18.1735C7.58387 18.3297 7.64776 18.4719 7.75155 18.5756C7.85467 18.6787 7.99691 18.7433 8.15307 18.7433H10.5429C10.699 18.7433 10.8413 18.6787 10.9444 18.5756C11.0481 18.4719 11.1121 18.3297 11.1121 18.1735V16.4812H11.1133C11.1133 16.2997 11.2262 16.1298 11.407 16.0664C11.7705 15.9385 12.1172 15.7785 12.4444 15.589C12.7774 15.3966 13.0908 15.1742 13.3799 14.9254L13.3804 14.9259C13.5176 14.8084 13.7191 14.7842 13.8844 14.8793L15.3169 15.7064C15.3382 15.7162 15.3595 15.7277 15.379 15.7415C15.5075 15.8066 15.6527 15.8176 15.7856 15.7818C15.9198 15.7455 16.0414 15.6614 16.1203 15.537C16.1284 15.5215 16.1376 15.5065 16.1474 15.4915L17.312 13.4742C17.3207 13.4564 17.331 13.4385 17.3426 13.4219C17.4076 13.2934 17.418 13.1483 17.3829 13.0153C17.3466 12.8811 17.2625 12.7595 17.1381 12.6806C17.1196 12.6708 17.1012 12.6604 17.0839 12.6478L15.6722 11.8327C15.504 11.7463 15.4043 11.5574 15.4401 11.3621C15.4752 11.1731 15.5017 10.9842 15.519 10.7947C15.5351 10.618 15.5438 10.4267 15.5438 10.2217C15.5438 10.0161 15.5351 9.82484 15.519 9.64793C15.5017 9.45842 15.4752 9.26944 15.4401 9.0806C15.4078 8.90261 15.4879 8.71604 15.6538 8.62096L17.1204 7.77428C17.2545 7.69714 17.3449 7.56977 17.383 7.42755C17.4193 7.29107 17.4072 7.14295 17.3381 7.01224L17.3278 6.9955L16.1332 4.92591H16.1344L16.1332 4.92471C16.056 4.79051 15.9287 4.70011 15.7864 4.66154C15.6442 4.6235 15.488 4.6385 15.3533 4.71632L13.9093 5.54977C13.7498 5.6557 13.5332 5.64821 13.3805 5.51749C13.0908 5.26919 12.778 5.04685 12.445 4.85454L12.4445 4.85333Z" fill="black"/>
</svg>
