<svg width="24" height="23" viewBox="0 0 24 23" fill="none" xmlns="http://www.w3.org/2000/svg">
<g clip-path="url(#clip0_21_2378)">
<path d="M18.005 0.975098C17.0831 0.975098 16.1599 1.29897 15.4585 1.9419L2.96858 13.391C2.86867 13.4826 2.8072 13.6035 2.79514 13.7326L2.40141 17.9833C2.38708 18.1442 2.45056 18.3027 2.57511 18.4169C2.69966 18.5311 2.8727 18.5894 3.04829 18.5762L7.68543 18.2185C7.82633 18.2062 7.95784 18.1489 8.05695 18.0563L20.5479 6.60719C21.9507 5.32133 21.9507 3.22768 20.5479 1.94194C19.8465 1.299 18.927 0.975132 18.005 0.975132L18.005 0.975098ZM18.005 2.06762C18.6165 2.06762 19.2282 2.28332 19.7019 2.71756C20.6493 3.58603 20.6493 4.96323 19.7019 5.83169L7.63504 16.893L4.2437 13.7821L16.3092 2.71762C16.7829 2.28341 17.3933 2.06768 18.0049 2.06768L18.005 2.06762ZM3.88274 15.0086L6.2991 17.2215L3.65882 17.4267L3.88274 15.0086Z" fill="black"/>
</g>
<defs>
<clipPath id="clip0_21_2378">
<rect width="24" height="22" fill="white" transform="translate(0 0.976562)"/>
</clipPath>
</defs>
</svg>
