<svg id="Capa_1" enable-background="new 0 0 512.009 512.009" height="512" viewBox="0 0 512.009 512.009" width="512" xmlns="http://www.w3.org/2000/svg"><g><g id="Page-1_6_"><g id="_x30_07---Badge"><path id="Shape_15_" d="m69.833 257.143c8.313 6.939 15.286 15.34 20.574 24.789 2.77 9.989 3.658 20.406 2.62 30.72-.41 18.057-.853 38.528 12.126 51.55 6.213 5.847 14.087 9.622 22.537 10.803l-39.637 68.685c-3.36 5.728-3.092 12.885.686 18.346 3.779 5.461 10.382 8.234 16.926 7.109l40.695-7.091 14.285 38.912c2.302 6.159 7.954 10.435 14.507 10.974.503.043 1.007.068 1.502.068 6.1.003 11.738-3.25 14.788-8.533l47.002-81.562c10.826 6.349 24.238 6.349 35.063 0l47.053 81.63c3.073 5.259 8.715 8.481 14.805 8.457.495 0 .998 0 1.502-.068 6.601-.548 12.284-4.876 14.566-11.093l14.242-38.818 40.755 7.091c6.514 1.081 13.068-1.692 16.827-7.121s4.048-12.54.743-18.257l-39.68-68.736c8.449-1.188 16.322-4.965 22.537-10.812 13.013-13.022 12.535-33.493 12.126-51.55-1.038-10.314-.15-20.731 2.62-30.72 5.288-9.449 12.261-17.851 20.574-24.789 13.355-12.868 27.162-26.197 27.162-43.793s-13.807-30.925-27.162-43.81c-8.313-6.939-15.286-15.34-20.574-24.789-2.77-9.989-3.658-20.406-2.62-30.72.41-18.057.853-38.528-12.126-51.55s-33.502-12.51-51.55-12.117c-10.314 1.043-20.732.155-30.72-2.62-9.435-5.29-17.822-12.263-24.747-20.574-12.911-13.347-26.24-27.154-43.836-27.154s-30.916 13.807-43.81 27.153c-6.925 8.312-15.312 15.287-24.747 20.582-9.991 2.76-20.406 3.649-30.72 2.62-18.031-.401-38.528-.853-51.55 12.126s-12.535 33.493-12.126 51.55c1.038 10.314.15 20.731-2.62 30.72-5.288 9.449-12.261 17.851-20.574 24.789-13.38 12.868-27.187 26.197-27.187 43.793s13.808 30.925 27.163 43.81zm106.811 237.833-14.276-38.904c-2.894-7.676-10.823-12.223-18.91-10.846l-40.661 7.04 43.767-75.836c3.413 0 6.827-.043 10.138-.119 10.314-1.032 20.73-.143 30.72 2.62 9.435 5.29 17.822 12.263 24.747 20.574 4.062 4.207 8.175 8.405 12.442 12.254zm232.653-42.667-40.764-7.091c-8.099-1.339-16.012 3.242-18.884 10.931l-14.285 38.784-47.949-83.183c4.267-3.84 8.38-8.038 12.433-12.237 6.925-8.312 15.312-15.287 24.747-20.582 9.989-2.77 20.406-3.658 30.72-2.62 3.311.077 6.724.128 10.138.128zm-327.62-270.506c10.11-8.454 18.435-18.836 24.491-30.541 3.811-12.153 5.143-24.947 3.917-37.623-.35-15.36-.725-31.232 7.134-39.091s23.689-7.501 39.091-7.125c12.68 1.204 25.473-.13 37.632-3.925 11.699-6.061 22.077-14.385 30.532-24.491 10.897-11.281 21.188-21.939 31.531-21.939 10.342 0 20.642 10.658 31.573 21.948 8.456 10.105 18.838 18.427 30.541 24.482 12.155 3.8 24.946 5.135 37.623 3.925 15.36-.341 31.241-.725 39.091 7.125 7.851 7.851 7.484 23.74 7.134 39.091-1.226 12.677.106 25.471 3.917 37.623 6.055 11.705 14.381 22.087 24.491 30.541 11.238 10.897 21.897 21.188 21.897 31.531 0 10.342-10.658 20.634-21.939 31.573-10.11 8.454-18.435 18.836-24.491 30.541-3.811 12.153-5.143 24.947-3.917 37.623.35 15.36.725 31.232-7.134 39.091s-23.697 7.484-39.091 7.125c-12.68-1.212-25.475.122-37.632 3.925-11.699 6.061-22.077 14.385-30.532 24.491-10.897 11.238-21.188 21.897-31.531 21.897-10.342 0-20.642-10.658-31.531-21.948-8.456-10.105-18.838-18.427-30.541-24.482-8.876-3.128-18.273-4.513-27.674-4.079-3.311 0-6.647.077-9.95.154-15.36.375-31.232.725-39.091-7.125s-7.484-23.74-7.134-39.091c1.226-12.677-.106-25.471-3.917-37.623-6.06-11.69-14.385-22.057-24.491-30.498-11.281-10.94-21.939-21.231-21.939-31.573.001-10.344 10.659-20.635 21.94-31.532z"/><path id="Path_9_" d="m207.296 279.108c3.152 3.148 8.196 3.341 11.58.444l119.467-102.4c2.449-1.942 3.64-5.067 3.105-8.147-.535-3.079-2.711-5.62-5.671-6.622s-6.232-.306-8.527 1.815l-113.493 97.28-28.553-28.544c-3.348-3.234-8.671-3.188-11.962.104-3.292 3.292-3.338 8.614-.104 11.962z"/><path id="Shape_14_" d="m256.004 349.867c75.405 0 136.533-61.128 136.533-136.533s-61.127-136.534-136.533-136.534-136.533 61.128-136.533 136.533c.089 75.369 61.165 136.444 136.533 136.534zm0-256c65.98 0 119.467 53.487 119.467 119.467s-53.487 119.466-119.467 119.466-119.467-53.487-119.467-119.467c.071-65.95 53.517-119.396 119.467-119.466z"/></g></g></g></svg>