<svg width="25" height="12" viewBox="0 0 25 12" fill="none" xmlns="http://www.w3.org/2000/svg">
<path d="M24.0259 6.57916C24.3188 6.28626 24.3188 5.81139 24.0259 5.5185L19.253 0.745527C18.9601 0.452634 18.4852 0.452634 18.1923 0.745527C17.8994 1.03842 17.8994 1.51329 18.1923 1.80619L22.4349 6.04883L18.1923 10.2915C17.8994 10.5844 17.8994 11.0592 18.1923 11.3521C18.4852 11.645 18.9601 11.645 19.253 11.3521L24.0259 6.57916ZM0.965256 5.5185C0.672363 5.81139 0.672363 6.28626 0.965256 6.57916L5.73823 11.3521C6.03112 11.645 6.50599 11.645 6.79889 11.3521C7.09178 11.0592 7.09178 10.5844 6.79889 10.2915L2.55625 6.04883L6.79889 1.80619C7.09178 1.51329 7.09178 1.03842 6.79889 0.745527C6.50599 0.452634 6.03112 0.452634 5.73823 0.745527L0.965256 5.5185ZM23.4956 5.29883L1.49559 5.29883V6.79883L23.4956 6.79883V5.29883Z" fill="black"/>
</svg>
