<svg id="Layer_1" enable-background="new 0 0 60 60" height="512" viewBox="0 0 60 60" width="512" xmlns="http://www.w3.org/2000/svg"><g><path d="m51.3 55h-45.1v-51.3h45.1v19.4h-2.6v-16.8h-39.9v46.2h39.9v-8.1h2.6z"/></g><g><path d="m41.3 48.8c-8.3 0-15-6.7-15-15s6.7-15 15-15 15 6.7 15 15-6.8 15-15 15zm0-27.5c-6.9 0-12.5 5.6-12.5 12.5s5.6 12.5 12.5 12.5 12.5-5.6 12.5-12.5-5.7-12.5-12.5-12.5z"/></g><g><path d="m13.7 49.6h20.9v2.5h-20.9z" transform="matrix(.707 -.707 .707 .707 -28.893 31.966)"/></g><g><path d="m13.8 11.2h30v2.5h-30z"/></g><g><path d="m13.8 18.7h13.8v2.5h-13.8z"/></g></svg>