<svg id="Layer_3" height="512" viewBox="0 0 48 48" width="512" xmlns="http://www.w3.org/2000/svg" data-name="Layer 3"><path d="m24 48a1.006 1.006 0 0 1 -.287-.042 28.977 28.977 0 0 1 -13.8-8.45c-10.222-11.344-7.838-26.814-7.257-29.8a1 1 0 0 1 .624-.742c3.09-1.183 6.147-2.426 9.088-3.695 3.783-1.63 7.524-3.358 11.123-5.138a1.03 1.03 0 0 1 .976-.02c3.611 1.787 7.368 3.522 11.165 5.157 2.941 1.27 6 2.513 9.088 3.7a1 1 0 0 1 .624.742c.581 2.986 2.965 18.456-7.26 29.8a28.97 28.97 0 0 1 -13.758 8.438 1 1 0 0 1 -.326.05zm-19.479-37.369c-.548 3.282-2.244 17.416 6.879 27.537a26.956 26.956 0 0 0 12.6 7.792 26.956 26.956 0 0 0 12.6-7.792c9.122-10.121 7.426-24.255 6.878-27.537-2.936-1.131-5.838-2.315-8.636-3.524-3.684-1.586-7.329-3.265-10.842-4.995-3.513 1.73-7.158 3.409-10.842 5-2.798 1.204-5.7 2.388-8.637 3.519z"/><path d="m24 34a10 10 0 0 1 0-20 1 1 0 0 1 0 2 8 8 0 1 0 8 8 1 1 0 0 1 2 0 10.011 10.011 0 0 1 -10 10z"/><path d="m25 27a1 1 0 0 1 -.707-.293l-4-4a1 1 0 0 1 1.407-1.414l3.21 3.21 7.3-9.128a1 1 0 0 1 1.562 1.25l-8 10a1 1 0 0 1 -.725.373z"/></svg>