<svg height="512" viewBox="0 0 28 28" width="512" xmlns="http://www.w3.org/2000/svg"><g id="Layer_2" data-name="Layer 2"><path d="m22.5 12.575-2.79 2.789-1.21-1.218a.5.5 0 1 0 -.707.708l1.571 1.571a.5.5 0 0 0 .707 0l3.144-3.143a.5.5 0 1 0 -.707-.707z"/><path d="m26.5 14.5a6.006 6.006 0 0 0 -5-5.91v-2.59a.5.5 0 0 0 -.146-.354l-4-4a.5.5 0 0 0 -.354-.146h-12a.5.5 0 0 0 -.5.5v2.5h-2.5a.5.5 0 0 0 -.5.5v21a.5.5 0 0 0 .5.5h17a.5.5 0 0 0 .5-.5v-2.5h1.5a.5.5 0 0 0 .5-.5v-2.59a6.006 6.006 0 0 0 5-5.91zm-9-11.293 2.293 2.293h-2.293zm1 22.293h-16v-20h2v17.5a.5.5 0 0 0 .5.5h13.5zm2-3h-15v-20h11v3.5a.5.5 0 0 0 .5.5h3.5v2a6 6 0 0 0 0 12zm0-3a5 5 0 1 1 5-5 5.006 5.006 0 0 1 -5 5z"/><path d="m10.5 13.646-1.548 1.554-.6-.6a.5.5 0 0 0 -.708.707l.953.952a.5.5 0 0 0 .707 0l1.905-1.9a.5.5 0 0 0 -.707-.708z"/><path d="m10.5 17.646-1.548 1.554-.6-.6a.5.5 0 0 0 -.708.707l.953.952a.5.5 0 0 0 .707 0l1.905-1.9a.5.5 0 0 0 -.707-.708z"/><path d="m8 5.5h6a.5.5 0 0 0 0-1h-6a.5.5 0 0 0 0 1z"/><path d="m14 7.5h-6a.5.5 0 0 0 0 1h6a.5.5 0 0 0 0-1z"/><path d="m11 10.5h-3a.5.5 0 0 0 0 1h3a.5.5 0 0 0 0-1z"/></g></svg>