<svg width="48" height="48" viewBox="0 0 48 48" fill="none" xmlns="http://www.w3.org/2000/svg">
<g opacity="0.8">
<path fill-rule="evenodd" clip-rule="evenodd" d="M20.1267 16.4709C20.3136 16.4709 20.4643 16.319 20.4643 16.1323C20.4655 16.0872 20.4577 16.0422 20.4412 16.0002C20.4248 15.9581 20.4001 15.9198 20.3686 15.8874C20.3371 15.855 20.2994 15.8293 20.2578 15.8118C20.2162 15.7942 20.1715 15.7852 20.1263 15.7852C20.0812 15.7852 20.0365 15.7942 19.9948 15.8118C19.9532 15.8293 19.9156 15.855 19.8841 15.8874C19.8525 15.9198 19.8278 15.9581 19.8114 16.0002C19.795 16.0422 19.7871 16.0872 19.7883 16.1323C19.7883 16.319 19.9388 16.4709 20.1267 16.4709ZM24.2137 23.4098C24.7159 23.4098 25.0537 23.3421 25.3258 23.2417C25.5965 23.1411 25.8045 23.02 25.9559 22.8959C26.0996 22.7783 26.1908 22.6591 26.3441 22.5807C26.4793 22.5108 26.6696 22.4944 26.8832 22.4944C27.1899 22.4944 27.535 22.5892 27.7873 22.728L27.8236 22.2586C27.6555 22.1756 27.0629 21.9678 26.5482 21.9678C25.9634 21.9678 25.7423 22.1255 25.5263 22.3205C25.275 22.5483 24.9575 22.8192 24.0989 22.8192C23.87 22.8192 23.321 22.7573 23.098 22.7573C22.9626 22.7573 22.8586 22.7912 22.8586 22.7912C22.8994 22.9196 22.987 23.2734 22.987 23.2734C23.1926 23.2991 23.5513 23.4098 24.2137 23.4098ZM21.574 22.0177C21.7479 22.0177 22.2537 22.0948 22.8378 22.1509C23.1696 22.1821 23.5247 22.2068 23.8599 22.2068C24.5161 22.2068 25.2347 21.8948 25.87 21.569L25.7457 21.117C25.449 21.2795 24.8842 21.4602 24.4135 21.5351C24.2977 21.554 23.9612 21.5586 23.8655 21.5434C23.7068 21.5187 23.5164 21.4616 23.3118 21.4244C23.0245 21.3704 22.7105 21.3576 22.5245 21.3494C22.3192 21.3402 21.9511 21.375 21.7702 21.3869C21.1055 21.4265 20.6663 21.583 20.2459 21.8667C20.0336 22.0104 19.7624 22.245 19.5532 22.529C19.6609 22.5369 19.9678 22.6226 19.9678 22.6226C20.421 22.237 21.1021 22.0177 21.574 22.0177Z" fill="white"/>
<path fill-rule="evenodd" clip-rule="evenodd" d="M13.5653 22.2359C13.8889 22.2359 14.0188 22.3408 14.1973 22.4482C14.3224 22.5254 14.4206 22.6105 14.5139 22.6949C14.7137 22.8734 14.6566 23.0372 14.4999 23.1608C14.4193 23.2249 14.3504 23.302 14.1472 23.4341C14.0493 23.4987 13.88 23.6024 13.7644 23.6513C13.561 23.7354 13.4724 23.7449 13.3987 23.7449C13.3239 23.7449 13.2049 23.7333 13.1382 23.6667L12.6208 23.9831C12.7761 24.1043 12.9524 24.1454 13.2492 24.1454C13.5844 24.1454 13.8519 24.0731 14.1823 23.9437C14.6107 23.7741 15.0922 23.4411 15.2521 23.3499C15.5793 23.1629 15.9097 23.0415 16.2636 23.0415C16.5753 23.0415 16.9268 23.2261 17.3205 23.4142C17.7854 23.6372 18.3531 23.8556 18.875 23.8556C19.188 23.8556 19.5384 23.8099 19.9054 23.7352C20.5569 23.6022 21.2576 23.3826 21.9433 23.1501L21.7206 22.7498C21.5534 22.8115 20.9809 22.9726 20.3654 23.1095C19.855 23.2215 19.3375 23.3228 19.069 23.3228C18.8496 23.3228 18.5913 23.3069 18.3601 23.2355C17.9675 23.1175 17.6149 22.9936 17.6149 22.6782C17.6149 22.4601 17.7082 22.3058 17.9724 22.1996C18.3997 22.0279 19.0656 22.0385 19.4158 22.0385C19.4814 21.9684 19.7464 21.6496 19.7464 21.6496C19.4658 21.5931 19.1802 21.5641 18.8939 21.5632C18.4549 21.5632 18.0493 21.6194 17.7131 21.7606C17.4013 21.8917 17.1561 22.0808 16.9785 22.3365C16.9072 22.4381 16.8337 22.5348 16.7265 22.5348C16.5487 22.5348 16.2404 22.3899 15.9182 22.3899C15.7779 22.3899 15.6589 22.419 15.5351 22.419C15.209 22.419 14.7841 22.1819 14.4056 21.98C14.1673 21.8528 13.9221 21.7335 13.6371 21.7335C13.5191 21.7335 13.3571 21.7628 13.2132 21.8235C12.9365 21.9391 12.6559 22.1261 12.5146 22.2438L12.7681 22.418C12.9159 22.3408 13.1849 22.2359 13.5653 22.2359ZM36.4478 25.8716C35.2295 24.8442 34.0509 23.72 33.2199 22.8009C31.7846 21.2162 29.8294 18.1921 29.1616 16.4809C28.9149 15.8513 28.4057 16.0651 28.6665 16.7054C29.297 18.2518 30.7511 20.5259 32.2693 22.4006C31.9155 22.2438 31.4767 22.0334 31.2395 21.9287C31.1587 22.0608 30.9589 22.3222 30.7533 22.537C30.5153 22.7847 30.27 22.9854 30.1941 23.0556C30.027 23.2111 29.9046 23.2227 29.7921 23.05C29.7411 22.968 29.6325 22.8212 29.5761 22.5663L29.2535 22.1577C29.0806 21.9405 28.2705 20.8323 28.0224 20.4596C27.775 20.0883 27.454 19.6909 26.934 19.6909C26.2906 19.6909 26.0686 20.4035 26.0185 21.0539L26.4457 20.8681C26.5453 20.4652 26.7429 20.255 26.9342 20.255C27.0706 20.255 27.238 20.4536 27.238 20.6018C27.1761 20.776 27.0636 21.1356 27.009 21.4135L27.4298 21.5562C27.4298 21.3516 27.5157 20.9801 27.6339 20.7876C27.6339 20.7876 27.7505 20.8867 27.7941 20.9675C27.8219 21.0198 28.0299 21.3376 28.2708 21.7604C28.4858 22.1377 28.7248 22.6037 28.9444 22.975C29.0506 23.1537 29.1725 23.3139 29.2537 23.4399C29.3623 23.606 29.4598 23.7224 29.5631 23.7812C29.6598 23.8346 29.7643 23.8361 29.8485 23.8361C30.1206 23.8361 30.2454 23.7458 30.4299 23.5886C30.7758 23.2904 31.0738 22.8761 31.3819 22.5046L32.1085 22.8326C32.3894 22.9662 32.6729 23.0943 32.9589 23.2169C33.5783 23.9202 34.2717 24.6093 34.9993 25.2645L35.4934 25.7001C35.6281 25.8167 35.7631 25.9311 35.9002 26.0445L36.4478 25.8716Z" fill="white"/>
<path fill-rule="evenodd" clip-rule="evenodd" d="M39.1749 25.6609C37.9305 22.937 36.2909 19.5872 34.8883 17.5352L34.5608 17.0749C34.0925 16.4434 33.5858 15.9197 33.0893 15.4118L32.7037 15.0323C31.7319 14.0907 30.6413 13.1494 29.8103 12.4787C29.0772 11.8881 28.556 10.5259 26.8767 10.5259C25.3631 10.5259 24.8455 11.5548 24.6762 12.1578C24.5637 12.5534 24.5151 12.6901 24.4097 12.8386L23.4482 13.9834L24.5824 13.8922L24.0077 14.8463C24.3371 14.7776 26.326 14.3781 26.735 15.0205C27.2315 15.7974 26.8927 16.6405 27.8209 18.4078L28.2224 19.1063C28.6844 19.8493 29.2315 20.5791 29.7177 21.1549L29.2528 22.1582L29.5754 22.5667L30.2981 21.0427C29.9293 20.7133 28.8252 19.2287 28.3688 18.403C27.3314 16.5249 27.739 15.5589 27.106 14.6981C26.5197 13.8992 24.8428 14.2765 24.8428 14.2765L25.4613 13.4089L24.3908 13.5395L24.8859 12.9441C24.9913 12.79 25.0158 12.6966 25.0588 12.5479C25.269 11.7855 25.8202 11.0297 26.8668 11.0297C28.1375 11.0297 28.5008 12.0051 29.3841 12.7818C30.2783 13.569 32.1533 15.0826 33.8686 17.0401C35.2518 18.618 37.0247 22.2866 38.3866 25.1822C36.8977 24.4566 34.376 21.962 33.3198 20.0931L32.8213 20.0349C33.9554 22.1863 36.3893 24.6913 38.7966 26.0551L39.1749 25.6609Z" fill="white"/>
<path fill-rule="evenodd" clip-rule="evenodd" d="M35.7268 16.6682C36.1237 16.3831 36.5937 16.1506 37.0888 15.9627C37.3935 16.3318 38.1119 16.6551 38.6817 16.7311L38.5905 17.3341C37.9585 17.015 36.8413 16.6902 35.7268 16.6682L35.2271 17.0978C36.7393 17.1258 37.7019 17.432 38.9482 17.9564L39.1957 16.3644C38.7015 16.2967 37.9225 16.1555 37.6528 15.7723C38.7927 15.4253 39.9757 15.2944 40.6742 15.3041V13.3428C40.3624 13.5252 39.9699 13.6957 39.5996 13.8103C39.1466 13.9492 38.7347 14.0101 38.6212 13.8103C38.4959 13.5907 39.1209 13.1994 39.765 12.8571L38.3153 11.6529C38.0956 11.9484 37.5967 12.7754 37.088 13.3217C36.7267 13.7097 36.3545 13.9641 36.1419 13.8055C36.0304 13.7213 36.026 13.4785 36.1182 13.1725C36.2945 12.5848 36.7581 11.7685 37.0406 11.4088L35.0368 11.2194C35.0368 12.0384 34.6522 12.9401 34.1789 13.6688C33.7706 14.296 33.1783 14.7519 32.704 15.032L33.0895 15.4115C33.6758 15.0039 34.2468 14.5052 34.6885 13.7948C35.0438 13.2238 35.3739 12.5335 35.4978 11.7252L36.1917 11.8057C35.9031 12.3347 35.5771 13.1561 35.5524 13.6933C35.5698 14.0587 35.6402 14.124 35.8284 14.2631C36.1764 14.5236 36.6074 14.3485 37.0184 13.9968C37.4714 13.6101 37.9169 12.9619 38.369 12.3753L38.9548 12.8639C38.2122 13.3215 38.002 13.811 38.2287 14.1356C38.317 14.2616 38.5078 14.3565 38.7446 14.3635C38.9794 14.3693 39.2576 14.3001 39.5614 14.2278C39.7749 14.1763 40.0064 14.1018 40.22 14.0362V14.8165C38.5325 14.9369 35.6523 15.62 34.5613 17.0741L34.8887 17.5343C34.9833 17.3791 35.0975 17.2339 35.2274 17.0973L35.7268 16.6682ZM13.6602 12.8349L13.8868 13.0051C14.4803 12.5217 15.174 11.6422 15.5653 10.8141L15.3631 10.6704C14.9846 11.0175 14.0817 12.1489 13.6602 12.8349Z" fill="white"/>
<path fill-rule="evenodd" clip-rule="evenodd" d="M13.3122 12.3057C12.9794 11.1309 13.8329 10.4276 14.7242 10.4929C15.0585 9.84926 15.5826 9.72083 16.1399 10.0548C16.6584 10.3669 16.6151 11.1597 16.1829 11.5312C16.3372 12.2377 15.7101 13.2446 14.7361 13.1945C14.8517 14.1697 13.6554 14.7246 12.9303 14.0877C12.3276 13.559 12.4536 12.6784 13.3122 12.3057ZM12.8998 12.1259C12.5905 12.1937 12.4292 12.3489 12.2913 12.6844C12.3837 11.9216 11.8767 11.1904 11.0416 11.2465C11.1233 9.88361 9.77322 9.0719 8.57937 9.73534C7.87409 9.1314 7.0856 9.25403 6.6113 9.81588C6.15804 10.3531 6.17328 11.2593 7.08923 11.7431C6.85776 12.6844 7.72002 13.62 8.73368 13.4025C8.79197 13.6923 9.00457 13.8476 9.28489 13.9632C8.86332 13.9878 8.69038 14.407 8.69038 14.407C7.34609 14.0626 6.65242 14.956 6.62993 15.8937C5.64892 16.1917 5.3744 17.418 6.12563 18.1341C6.90227 18.8769 7.82861 18.5722 8.23253 17.8127C9.09914 18.1421 10.0267 17.6071 10.0509 16.6496C11.0169 16.7405 11.3872 15.9791 11.2972 15.1768L10.991 15.1522C10.8592 15.8974 10.5051 16.2186 9.69679 16.2186C9.66172 16.9345 8.8967 17.5558 8.03009 17.3914C7.78701 17.9636 7.07351 18.1504 6.58639 17.6717C6.10048 17.1928 6.26156 16.2923 7.11898 16.1298C7.08391 15.2516 7.93866 14.7074 9.15936 14.7657C9.5062 14.3359 9.78652 14.1535 10.3063 14.2038L10.3111 13.954C9.82401 13.8884 9.27497 13.4269 9.23434 12.9309C8.1948 13.0136 7.48323 12.4179 7.51854 11.4836C6.85051 11.1706 6.97071 10.4849 7.18694 10.2246C7.55942 9.77501 8.08016 9.81105 8.501 10.1743C9.68881 9.7201 10.6451 10.6578 10.6451 11.6821C10.6451 11.6821 11.2002 11.6715 11.512 11.9963C11.9244 12.4273 11.9244 12.8022 12.0223 13.2202C12.1147 13.6149 12.3133 14.1395 12.798 14.5178C13.6552 15.186 14.9835 15.0049 15.1189 13.5953C16.2598 13.6966 17.0099 12.801 16.6338 11.7056C17.4326 11.1355 17.2737 9.96052 16.5227 9.50605C16.3541 9.39471 16.1635 9.32112 15.9638 9.29032C15.7641 9.25951 15.5601 9.27223 15.3658 9.32758C15.1715 9.38294 14.9914 9.47963 14.8379 9.61104C14.6844 9.74245 14.5612 9.90547 14.4766 10.089C13.3074 9.82024 12.3544 10.986 12.8998 12.1259ZM18.1744 18.955C18.2772 18.5439 17.7352 18.4829 17.6605 18.8617C17.5811 19.267 17.0882 19.9585 16.6212 20.3917L16.7881 20.5717C17.4012 20.1136 18.0426 19.4796 18.1744 18.955ZM20.8969 12.1632C20.986 12.1599 21.0704 12.1221 21.1322 12.0579C21.1941 11.9937 21.2286 11.908 21.2286 11.8188C21.2286 11.7296 21.1941 11.6439 21.1322 11.5797C21.0704 11.5154 20.986 11.4777 20.8969 11.4744C20.7065 11.4744 20.5537 11.6296 20.5537 11.8188C20.5537 12.0091 20.7065 12.1632 20.8969 12.1632ZM25.9683 12.4774C25.9709 12.3708 26.0151 12.2694 26.0914 12.195C26.1677 12.1205 26.2701 12.0788 26.3767 12.0788C26.4834 12.0788 26.5858 12.1205 26.6621 12.195C26.7384 12.2694 26.7825 12.3708 26.7851 12.4774C26.7853 12.5311 26.7748 12.5844 26.7544 12.6341C26.734 12.6838 26.7039 12.7289 26.666 12.767C26.6281 12.8051 26.583 12.8353 26.5334 12.856C26.4838 12.8766 26.4306 12.8873 26.3769 12.8873C26.1519 12.8873 25.9683 12.704 25.9683 12.4774ZM25.3211 19.825C22.663 19.6209 20.0165 19.7878 20.0165 19.7878L20.203 19.3007C22.7445 19.1161 25.3586 19.3007 25.3586 19.3007L25.3211 19.825Z" fill="white"/>
<path fill-rule="evenodd" clip-rule="evenodd" d="M9.25787 21.6755C9.25787 21.6755 9.40856 21.8767 9.64341 22.1266C9.72298 22.2388 9.8103 22.3191 9.92107 22.4234C10.4084 22.8986 11.1253 23.2549 11.8647 23.3974C12.0749 23.4375 12.2619 23.4687 12.4699 23.4687C12.7853 23.4687 13.0757 23.2994 13.2615 23.1332L12.972 22.7956C12.8786 22.8234 12.6846 22.8234 12.5562 22.8234C11.484 22.8234 10.1235 22.1218 9.8103 21.3086C9.77861 21.2293 9.74136 21.185 9.77305 21.11C9.80328 21.0353 9.84319 20.8778 9.8652 20.733C9.92833 20.8053 10.0577 20.9139 10.2224 21.0201C10.622 21.276 11.3812 21.6298 11.5295 21.7246C11.8405 21.6356 12.1418 21.5155 12.4287 21.3659C12.6517 21.2503 12.9567 21.1463 13.3094 21.1463C14.093 21.1463 14.9935 21.5923 15.8393 22.0093L16.4174 21.7827C15.6664 21.2537 14.0338 20.5143 13.1251 20.5143C12.5901 20.5143 12.0865 20.9069 11.7283 20.9069C11.2879 20.9069 10.0265 20.2913 10.0265 19.7786C10.0265 19.3838 10.8428 19.1594 12.1554 18.9981C11.9265 19.3358 11.7118 19.683 11.5121 20.0388L11.8461 20.2246C13.9017 17.2426 16.0391 15.3065 17.8378 14.1278C18.4918 13.699 18.6404 13.4482 18.8679 12.9797C19.4252 11.8398 19.9508 10.9625 20.8653 10.9625C21.2914 10.9625 21.6407 11.2032 21.8804 11.5L22.5414 11.6985L21.8719 12.1528L22.5567 12.4261C21.663 12.6771 20.4425 13.5474 19.9474 14.8239C18.9954 14.8742 18.5363 15.6463 18.2258 16.2933C18.0154 16.7291 17.6816 16.903 17.1945 17.2336L13.3016 19.9515L13.8376 20.0262L17.4337 17.6131C18.144 17.1345 18.4802 16.7816 18.651 16.4403C18.9838 15.7723 19.3437 15.276 20.0492 15.276C20.3961 15.276 20.7661 15.4242 21.0629 15.7058L21.6946 15.9114L21.0056 16.3329L21.5836 16.6894C19.9322 17.207 18.91 18.3912 18.3167 20.6546L18.7535 20.7528C18.972 20.0042 19.1891 19.3164 19.5756 18.7088C20.531 18.6984 21.4997 18.6633 22.449 18.6633C24.9835 18.6633 27.088 18.7707 28.2233 19.1059L27.8218 18.4074C26.6074 18.1994 24.8447 18.0932 22.4493 18.0932C21.647 18.0932 20.8326 18.1223 20.0246 18.1317C20.5467 17.5793 21.2965 17.1132 22.4529 16.7548L21.633 16.3027L22.5438 15.7958L21.3023 15.3331C21.0851 15.1381 20.8152 14.9594 20.4756 14.8728C20.8737 13.6499 22.2275 12.9352 23.5263 12.4423L22.6166 12.0696L23.5333 11.5675L22.1213 11.1164C21.7522 10.682 21.3984 10.4844 20.8539 10.4844C19.5435 10.4844 18.9923 11.6231 18.4737 12.6324C18.1992 13.165 18.0275 13.3892 17.5626 13.693C16.5545 14.3528 15.2709 15.3618 14.0449 16.6549C13.4047 16.1927 12.0952 14.8397 11.7416 14.1017C11.6013 14.2756 11.4625 14.6544 11.4625 14.6544C11.597 14.7954 13.1374 16.3547 13.7106 17.0157C13.6673 17.0636 13.6245 17.1115 13.5812 17.1606C12.9703 17.282 11.3844 17.4351 10.8445 17.3616L10.541 17.9002C10.9437 17.8606 12.5206 17.6746 13.1747 17.6361C12.9742 17.8796 12.7798 18.1281 12.5918 18.3813C10.5654 18.6125 9.21047 19.0283 9.21047 19.7783C9.21047 19.9022 9.26053 20.0422 9.26053 20.174C9.26053 20.4882 9.1425 20.6041 8.9195 20.7441C8.77462 20.8365 8.76519 20.8996 8.82735 20.986C9.16354 21.5292 8.11941 21.7989 8.84694 22.7707L9.4637 22.8079C9.46346 22.8082 8.86194 22.4582 9.25787 21.6755ZM8.45851 10.8864L8.25776 11.0919C8.5463 11.5043 9.82408 12.6491 10.472 13.0743L10.7103 12.7787C10.2853 12.2788 9.07744 11.2008 8.45851 10.8864ZM7.57666 16.6566L7.7658 16.8631C8.25292 16.6273 9.16838 15.9498 9.66372 15.4419L9.52731 15.2397C8.94538 15.4828 8.04612 16.1484 7.57666 16.6566Z" fill="white"/>
<path fill-rule="evenodd" clip-rule="evenodd" d="M35.7949 25.0963C35.795 25.0117 35.7784 24.928 35.7461 24.8498C35.7139 24.7717 35.6665 24.7006 35.6067 24.6408C35.547 24.581 35.476 24.5335 35.3979 24.5011C35.3198 24.4687 35.2361 24.452 35.1515 24.4519L34.1988 24.4515C34.1141 24.4516 34.0303 24.4685 33.9521 24.501C33.874 24.5336 33.803 24.5813 33.7432 24.6413C33.6835 24.7013 33.6361 24.7725 33.6039 24.8508C33.5717 24.9291 33.5552 25.013 33.5555 25.0977L33.5559 35.0638C33.5558 35.1484 33.5723 35.2322 33.6045 35.3105C33.6367 35.3887 33.6841 35.4598 33.7439 35.5197C33.8036 35.5796 33.8746 35.6271 33.9528 35.6595C34.0309 35.692 34.1147 35.7086 34.1993 35.7086H35.152C35.2366 35.7084 35.3204 35.6916 35.3985 35.659C35.4766 35.6265 35.5475 35.5789 35.6072 35.5189C35.6669 35.4589 35.7142 35.3878 35.7464 35.3095C35.7786 35.2313 35.7951 35.1475 35.7949 35.0629V25.0963ZM37.0093 25.3614V25.8352C37.0095 25.8819 37.0188 25.9281 37.0368 25.9711C37.0549 26.0142 37.0812 26.0533 37.1143 26.0862C37.1474 26.1191 37.1867 26.1452 37.2299 26.1629C37.2731 26.1806 37.3194 26.1897 37.3661 26.1895H43.9405C44.2399 26.1895 44.4832 25.9476 44.4832 25.6477V24.8452C44.4832 24.5458 44.237 24.2742 43.939 24.3034C43.939 24.3034 37.5845 24.927 37.3794 24.9502C37.1426 24.9763 37.0093 25.1652 37.0093 25.3614ZM31.6873 35.7091C30.0518 35.7091 29.0224 34.4691 29.0224 33.0883L29.021 29.1009H28.5527C28.4934 29.1009 28.4347 29.0893 28.3799 29.0667C28.3251 29.0441 28.2753 29.0109 28.2334 28.969C28.1914 28.9271 28.1581 28.8773 28.1355 28.8225C28.1128 28.7678 28.1011 28.7091 28.1011 28.6498V27.9822C28.1011 27.7329 28.3043 27.5326 28.5532 27.5326L29.021 27.5331L29.02 25.0813C29.0198 24.9988 29.0359 24.9171 29.0674 24.8408C29.0989 24.7646 29.1451 24.6953 29.2033 24.6369C29.2616 24.5786 29.3308 24.5323 29.407 24.5007C29.4832 24.4691 29.5649 24.4529 29.6474 24.4529H30.5766C30.7433 24.4534 30.903 24.5201 31.0207 24.6382C31.1383 24.7563 31.2042 24.9163 31.204 25.083L31.2045 27.5328H32.6533C32.9032 27.5328 33.1063 27.7336 33.1063 27.9829V28.6505C33.1063 28.7097 33.0946 28.7684 33.0719 28.823C33.0491 28.8777 33.0158 28.9274 32.9739 28.9692C32.932 29.011 32.8822 29.0442 32.8274 29.0667C32.7726 29.0892 32.714 29.1008 32.6548 29.1006H31.2045L31.2055 32.7891C31.2055 33.5132 31.6442 34.0074 32.4291 34.0074L32.5609 34.0064C32.8316 34.0064 33.0517 34.2245 33.0517 34.4952V35.2198C33.0517 35.2842 33.039 35.3478 33.0144 35.4073C32.9897 35.4667 32.9536 35.5206 32.908 35.5661C32.8625 35.6115 32.8084 35.6474 32.7489 35.6719C32.6894 35.6964 32.6257 35.7089 32.5614 35.7086H31.6873V35.7091ZM16.3713 27.2457C13.7275 27.2457 12.2446 29.3149 12.2446 31.4948C12.2446 33.818 13.833 35.8639 16.3885 35.8639C18.1377 35.8639 19.862 34.9422 20.1878 33.4283C20.2318 33.2242 20.0942 32.9564 19.8063 32.9555H18.5566C18.3297 32.9555 18.1442 33.0641 18.0325 33.2281C17.675 33.7524 17.1509 34.0315 16.3762 34.0315C15.2815 34.0315 14.5225 33.169 14.4654 32.2125H19.7809C20.2705 32.2125 20.4891 31.9469 20.4891 31.4944C20.4896 29.3686 19.2312 27.2457 16.3713 27.2457ZM16.3713 28.9521C17.3473 28.9521 18.1897 29.6465 18.2751 30.5862H14.4821C14.5673 29.6465 15.3954 28.9521 16.3713 28.9521ZM40.5923 27.2457C37.9487 27.2457 36.4658 29.3149 36.4658 31.4948C36.4658 33.818 38.0544 35.8639 40.6097 35.8639C42.3589 35.8639 44.0832 34.9422 44.4092 33.4283C44.4532 33.2242 44.3156 32.9564 44.028 32.9555H42.7781C42.5512 32.9555 42.3657 33.0641 42.2537 33.2281C41.8965 33.7524 41.3721 34.0315 40.5974 34.0315C39.503 34.0315 38.7442 33.169 38.6867 32.2125H44.0026C44.4919 32.2125 44.7108 31.9469 44.7108 31.4944C44.7108 29.3686 43.4524 27.2457 40.5923 27.2457ZM40.5923 28.9521C41.5687 28.9521 42.4112 29.6465 42.4965 30.5862H38.7031C38.7882 29.6465 39.6164 28.9521 40.5923 28.9521Z" fill="white"/>
<path fill-rule="evenodd" clip-rule="evenodd" d="M27.2336 24.5644H10.0159C9.92285 24.5644 9.83076 24.5827 9.74485 24.6183C9.65894 24.654 9.58089 24.7062 9.51518 24.772C9.44947 24.8378 9.39739 24.916 9.36191 25.0019C9.32643 25.0879 9.30824 25.18 9.3084 25.273L9.36766 32.0354C9.36766 32.0354 5.65743 25.334 5.46394 24.992C5.2823 24.6703 4.89169 24.374 4.35111 24.374H2.93523C2.84213 24.374 2.74993 24.3924 2.66392 24.428C2.57791 24.4637 2.49977 24.5159 2.43396 24.5818C2.36814 24.6476 2.31595 24.7258 2.28037 24.8118C2.24478 24.8979 2.2265 24.9901 2.22656 25.0832L2.22729 35.0002C2.22722 35.0932 2.24549 35.1854 2.28105 35.2714C2.3166 35.3574 2.36875 35.4356 2.43451 35.5014C2.50027 35.5673 2.57836 35.6195 2.66431 35.6552C2.75027 35.6909 2.84241 35.7093 2.93547 35.7093H3.84368C4.03178 35.7089 4.212 35.6337 4.34472 35.5004C4.47743 35.3671 4.55176 35.1866 4.55138 34.9985L4.4943 28.0468C4.4943 28.0468 8.24032 34.8151 8.40068 35.0817C8.61667 35.4421 8.98237 35.7096 9.51254 35.7096H10.8133C10.9063 35.7095 10.9985 35.6911 11.0844 35.6554C11.1704 35.6198 11.2484 35.5675 11.3142 35.5016C11.3799 35.4358 11.432 35.3576 11.4676 35.2716C11.5031 35.1856 11.5213 35.0935 11.5212 35.0004L11.5208 26.2451L27.2346 26.2456C27.2981 26.2458 27.3611 26.2334 27.4198 26.2093C27.4786 26.1851 27.532 26.1496 27.577 26.1047C27.622 26.0599 27.6578 26.0066 27.6822 25.9479C27.7066 25.8893 27.7192 25.8264 27.7193 25.7628V25.0476C27.7189 24.9192 27.6675 24.7961 27.5764 24.7055C27.4854 24.6149 27.3621 24.5641 27.2336 24.5644Z" fill="white"/>
<path fill-rule="evenodd" clip-rule="evenodd" d="M24.4469 28.8692C25.1958 28.8692 25.7554 29.1409 25.9571 29.6098C26.0539 29.8353 26.2416 29.8786 26.4994 29.8786H27.5288C27.6988 29.8786 27.8945 29.7322 27.8945 29.5097C27.8945 28.3132 26.4675 27.2446 24.4455 27.2446C22.355 27.2446 20.982 28.2404 20.982 29.8273C20.982 31.041 21.9412 31.7632 23.1203 32.0716C23.6577 32.2118 24.5754 32.4387 25.0221 32.5563C25.5039 32.6823 25.9347 32.8298 25.9347 33.2422C25.9347 33.8935 25.2482 34.1151 24.4985 34.1151C23.7881 34.1151 23.0806 33.798 22.8777 33.2913C22.7604 32.9979 22.5546 32.9553 22.2426 32.9553H21.1955C21.0129 32.9553 20.8027 33.1121 20.8027 33.3503V33.4855C20.8027 34.6438 22.3567 35.857 24.5004 35.857C26.0205 35.857 28.1383 35.225 28.1383 33.1866C28.1383 32.006 27.3484 31.1887 26.0631 30.862C25.5605 30.7345 24.3521 30.4273 24.0892 30.3594C23.6207 30.238 23.1834 30.0854 23.1834 29.6839C23.1837 29.0756 23.7458 28.8692 24.4469 28.8692Z" fill="white"/>
<path fill-rule="evenodd" clip-rule="evenodd" d="M35.7946 25.0963C35.7947 25.0117 35.7782 24.928 35.7459 24.8498C35.7136 24.7717 35.6662 24.7006 35.6065 24.6408C35.5467 24.581 35.4758 24.5335 35.3977 24.5011C35.3196 24.4687 35.2358 24.452 35.1513 24.4519L34.1986 24.4515C34.1139 24.4516 34.0301 24.4685 33.9519 24.501C33.8737 24.5336 33.8027 24.5813 33.743 24.6413C33.6832 24.7013 33.6359 24.7725 33.6037 24.8508C33.5714 24.9291 33.555 25.013 33.5552 25.0977L33.5557 35.0638C33.5555 35.1484 33.572 35.2322 33.6042 35.3105C33.6365 35.3887 33.6839 35.4598 33.7436 35.5197C33.8034 35.5796 33.8744 35.6271 33.9525 35.6595C34.0307 35.692 34.1144 35.7086 34.1991 35.7086H35.1518C35.2364 35.7084 35.3201 35.6916 35.3982 35.659C35.4763 35.6265 35.5473 35.5789 35.6069 35.5189C35.6666 35.4589 35.7139 35.3878 35.7462 35.3095C35.7784 35.2313 35.7948 35.1475 35.7946 35.0629V25.0963ZM37.0091 25.3614V25.8352C37.0092 25.8819 37.0186 25.9281 37.0366 25.9711C37.0546 26.0142 37.0809 26.0533 37.114 26.0862C37.1472 26.1191 37.1865 26.1452 37.2297 26.1629C37.2729 26.1806 37.3191 26.1897 37.3658 26.1895H43.9402C44.2396 26.1895 44.483 25.9476 44.483 25.6477V24.8452C44.483 24.5458 44.2367 24.2742 43.9388 24.3034C43.9388 24.3034 37.5842 24.927 37.3791 24.9502C37.1423 24.9763 37.0091 25.1652 37.0091 25.3614ZM31.687 35.7091C30.0515 35.7091 29.0222 34.4691 29.0222 33.0883L29.0207 29.1009H28.5524C28.4932 29.1009 28.4344 29.0893 28.3796 29.0667C28.3248 29.0441 28.275 29.0109 28.2331 28.969C28.1912 28.9271 28.1579 28.8773 28.1352 28.8225C28.1125 28.7678 28.1009 28.7091 28.1009 28.6498V27.9822C28.1009 27.7329 28.3041 27.5326 28.5529 27.5326L29.0207 27.5331L29.0197 25.0813C29.0196 24.9988 29.0357 24.9171 29.0671 24.8408C29.0986 24.7646 29.1448 24.6953 29.2031 24.6369C29.2614 24.5786 29.3306 24.5323 29.4068 24.5007C29.483 24.4691 29.5646 24.4529 29.6471 24.4529H30.5764C30.7431 24.4534 30.9028 24.5201 31.0204 24.6382C31.138 24.7563 31.204 24.9163 31.2038 25.083L31.2043 27.5328H32.653C32.9029 27.5328 33.1061 27.7336 33.1061 27.9829V28.6505C33.106 28.7097 33.0943 28.7684 33.0716 28.823C33.0489 28.8777 33.0156 28.9274 32.9736 28.9692C32.9317 29.011 32.8819 29.0442 32.8272 29.0667C32.7724 29.0892 32.7137 29.1008 32.6545 29.1006H31.2043L31.2052 32.7891C31.2052 33.5132 31.644 34.0074 32.4288 34.0074L32.5607 34.0064C32.8313 34.0064 33.0514 34.2245 33.0514 34.4952V35.2198C33.0514 35.2842 33.0388 35.3478 33.0141 35.4073C32.9895 35.4667 32.9533 35.5206 32.9078 35.5661C32.8622 35.6115 32.8082 35.6474 32.7487 35.6719C32.6892 35.6964 32.6255 35.7089 32.5611 35.7086H31.687V35.7091ZM20.4894 31.4944C20.4894 29.3686 19.2309 27.2457 16.3713 27.2457C13.7275 27.2457 12.2446 29.3149 12.2446 31.4948C12.2446 33.818 13.833 35.8639 16.3885 35.8639C18.1377 35.8639 19.862 34.9422 20.1878 33.4283C20.2318 33.2242 20.0941 32.9564 19.8063 32.9555H18.5566C18.3297 32.9555 18.1442 33.0641 18.0325 33.2281C17.675 33.7524 17.1509 34.0315 16.3762 34.0315C15.2815 34.0315 14.5225 33.169 14.4654 32.2125H19.7809C20.2705 32.2125 20.4894 31.9469 20.4894 31.4944ZM14.4819 30.5859C14.5673 29.6463 15.3952 28.9519 16.3713 28.9519C17.3473 28.9519 18.1897 29.6463 18.2751 30.5859H14.4819ZM44.7105 31.4944C44.7105 29.3686 43.4521 27.2457 40.5923 27.2457C37.9487 27.2457 36.4658 29.3149 36.4658 31.4948C36.4658 33.818 38.0544 35.8639 40.6097 35.8639C42.3589 35.8639 44.0831 34.9422 44.4092 33.4283C44.4532 33.2242 44.3156 32.9564 44.028 32.9555H42.778C42.5512 32.9555 42.3657 33.0641 42.2537 33.2281C41.8964 33.7524 41.3721 34.0315 40.5974 34.0315C39.5029 34.0315 38.7442 33.169 38.6866 32.2125H44.0026C44.4917 32.2125 44.7105 31.9469 44.7105 31.4944ZM38.7031 30.5859C38.7882 29.6463 39.6161 28.9519 40.5923 28.9519C41.5687 28.9519 42.4111 29.6463 42.4965 30.5859H38.7031Z" fill="white"/>
<path fill-rule="evenodd" clip-rule="evenodd" d="M27.2336 24.5644H10.0159C9.92285 24.5644 9.83076 24.5827 9.74485 24.6183C9.65894 24.654 9.58089 24.7062 9.51518 24.772C9.44947 24.8378 9.39739 24.916 9.36191 25.0019C9.32643 25.0879 9.30824 25.18 9.3084 25.273L9.36766 32.0354C9.36766 32.0354 5.65743 25.334 5.46394 24.992C5.2823 24.6703 4.89169 24.374 4.35111 24.374H2.93523C2.84213 24.374 2.74993 24.3924 2.66392 24.428C2.57791 24.4637 2.49977 24.5159 2.43396 24.5818C2.36814 24.6476 2.31595 24.7258 2.28037 24.8118C2.24478 24.8979 2.2265 24.9901 2.22656 25.0832L2.22729 35.0002C2.22722 35.0932 2.24549 35.1854 2.28105 35.2714C2.3166 35.3574 2.36875 35.4356 2.43451 35.5014C2.50027 35.5673 2.57836 35.6195 2.66431 35.6552C2.75027 35.6909 2.84241 35.7093 2.93547 35.7093H3.84368C4.03178 35.7089 4.212 35.6337 4.34472 35.5004C4.47743 35.3671 4.55176 35.1866 4.55138 34.9985L4.4943 28.0468C4.4943 28.0468 8.24032 34.8151 8.40068 35.0817C8.61667 35.4421 8.98237 35.7096 9.51254 35.7096H10.8133C10.9063 35.7095 10.9985 35.6911 11.0844 35.6554C11.1704 35.6198 11.2484 35.5675 11.3142 35.5016C11.3799 35.4358 11.432 35.3576 11.4676 35.2716C11.5031 35.1856 11.5213 35.0935 11.5212 35.0004L11.5208 26.2451L27.2346 26.2456C27.2981 26.2458 27.3611 26.2334 27.4198 26.2093C27.4786 26.1851 27.532 26.1496 27.577 26.1047C27.622 26.0599 27.6578 26.0066 27.6822 25.9479C27.7066 25.8893 27.7192 25.8264 27.7193 25.7628V25.0476C27.7189 24.9192 27.6675 24.7961 27.5764 24.7055C27.4854 24.6149 27.3621 24.5641 27.2336 24.5644Z" fill="white"/>
<path fill-rule="evenodd" clip-rule="evenodd" d="M24.4469 28.8692C25.1958 28.8692 25.7554 29.1409 25.9571 29.6098C26.0539 29.8353 26.2416 29.8786 26.4994 29.8786H27.5288C27.6988 29.8786 27.8945 29.7322 27.8945 29.5097C27.8945 28.3132 26.4675 27.2446 24.4455 27.2446C22.355 27.2446 20.982 28.2404 20.982 29.8273C20.982 31.041 21.9412 31.7632 23.1203 32.0716C23.6577 32.2118 24.5754 32.4387 25.0221 32.5563C25.5039 32.6823 25.9347 32.8298 25.9347 33.2422C25.9347 33.8935 25.2482 34.1151 24.4985 34.1151C23.7881 34.1151 23.0806 33.798 22.8777 33.2913C22.7604 32.9979 22.5546 32.9553 22.2426 32.9553H21.1955C21.0129 32.9553 20.8027 33.1121 20.8027 33.3503V33.4855C20.8027 34.6438 22.3567 35.857 24.5004 35.857C26.0205 35.857 28.1383 35.225 28.1383 33.1866C28.1383 32.006 27.3484 31.1887 26.0631 30.862C25.5605 30.7345 24.3521 30.4273 24.0892 30.3594C23.6207 30.238 23.1834 30.0854 23.1834 29.6839C23.1837 29.0756 23.7458 28.8692 24.4469 28.8692ZM45.4496 35.2901H45.2162V34.1988H45.624C45.9055 34.1988 46.072 34.2791 46.072 34.5284C46.072 34.7292 45.9539 34.802 45.8093 34.8129L46.0879 35.2901H45.8115L45.5597 34.8315H45.4496V35.2901ZM45.6559 34.6467C45.7609 34.6467 45.8223 34.6249 45.8223 34.504C45.8223 34.3915 45.7014 34.3836 45.6136 34.3836H45.4496V34.6467H45.6559ZM45.6182 35.7591C45.0796 35.7591 44.5992 35.3863 44.5992 34.7454C44.5992 34.1049 45.0796 33.7322 45.6182 33.7322C46.1549 33.7322 46.6353 34.1049 46.6353 34.7454C46.6353 35.3863 46.1549 35.7591 45.6182 35.7591ZM45.6182 33.9678C45.2162 33.9678 44.8916 34.2791 44.8916 34.7454C44.8916 35.2122 45.2162 35.5264 45.6182 35.5235V35.5264C46.0103 35.5264 46.3424 35.2122 46.3424 34.7454C46.3424 34.2791 46.0103 33.9678 45.6182 33.9678Z" fill="white"/>
</g>
</svg>
