<svg width="17" height="16" viewBox="0 0 17 16" fill="none" xmlns="http://www.w3.org/2000/svg">
<circle cx="8.74805" cy="8" r="7.5" stroke="black"/>
<path d="M12.8241 6.13538C12.9803 5.97917 12.9803 5.72591 12.8241 5.5697L10.2785 3.02411C10.1223 2.8679 9.86905 2.8679 9.71284 3.02411C9.55663 3.18032 9.55663 3.43359 9.71284 3.5898L11.9756 5.85254L9.71284 8.11528C9.55663 8.27149 9.55663 8.52476 9.71284 8.68097C9.86905 8.83718 10.1223 8.83718 10.2785 8.68097L12.8241 6.13538ZM4.95703 6.25254H12.5413V5.45254H4.95703V6.25254Z" fill="black"/>
<path d="M4.67419 9.86511C4.51798 10.0213 4.51798 10.2746 4.67419 10.4308L7.21977 12.9764C7.37598 13.1326 7.62925 13.1326 7.78546 12.9764C7.94167 12.8202 7.94167 12.5669 7.78546 12.4107L5.52272 10.1479L7.78546 7.88521C7.94167 7.729 7.94167 7.47573 7.78546 7.31952C7.62925 7.16331 7.37598 7.16331 7.21977 7.31952L4.67419 9.86511ZM4.95703 10.5479H12.5413V9.74795H4.95703V10.5479Z" fill="black"/>
</svg>
