<svg width="20" height="20" viewBox="0 0 20 20" fill="none" xmlns="http://www.w3.org/2000/svg">
<path d="M5.76991 6.6345C5.76991 5.81376 6.43874 5.1601 7.24431 5.1601H11.5611L10.6491 6.07216C10.3451 6.37613 10.3451 6.89291 10.6491 7.19699C10.8011 7.34903 11.0139 7.42494 11.2114 7.42494C11.4091 7.42494 11.6219 7.34892 11.7738 7.19699L14.0538 4.91699C14.3578 4.61301 14.3578 4.09624 14.0538 3.79216L11.7738 1.51216C11.4698 1.20819 10.9531 1.20819 10.649 1.51216C10.345 1.81613 10.345 2.3329 10.649 2.63699L11.561 3.54904L7.24423 3.54893C5.54186 3.54893 4.17383 4.93216 4.17383 6.61933V11.0121L5.76986 9.41611L5.76991 6.6345Z" fill="black" fill-opacity="0.4"/>
<path d="M13.4924 7.57682V10.3736C13.4924 11.1944 12.8236 11.848 12.018 11.848H7.70122L8.61328 10.936C8.91725 10.632 8.91725 10.1152 8.61328 9.81114C8.3093 9.50717 7.79253 9.50717 7.48845 9.81114L5.20845 12.0911C4.90448 12.3951 4.90448 12.9119 5.20845 13.216L7.48845 15.496C7.64049 15.648 7.85328 15.7239 8.05082 15.7239C8.24845 15.7239 8.46125 15.6479 8.61319 15.496C8.91717 15.192 8.91717 14.6752 8.61319 14.3711L7.70114 13.4591H12.0179C13.7203 13.4591 15.0883 12.0759 15.0883 10.3887L15.0884 5.98096L13.4924 7.57682Z" fill="black" fill-opacity="0.4"/>
</svg>
