<svg width="21" height="23" viewBox="0 0 21 23" fill="none" xmlns="http://www.w3.org/2000/svg">
<circle cx="10.8533" cy="10.7956" r="9.92943" fill="#F8B249"/>
<g clip-path="url(#clip0_585_637)">
<path d="M7.57264 9.23704C7.57264 8.4163 8.24147 7.76264 9.04704 7.76264H13.3638L12.4518 8.6747C12.1478 8.97867 12.1478 9.49544 12.4518 9.79953C12.6038 9.95157 12.8166 10.0275 13.0142 10.0275C13.2118 10.0275 13.4246 9.95146 13.5765 9.79953L15.8565 7.51953C16.1605 7.21555 16.1605 6.69878 15.8565 6.3947L13.5765 4.1147C13.2726 3.81073 12.7558 3.81073 12.4517 4.1147C12.1477 4.41867 12.1477 4.93544 12.4517 5.23953L13.3638 6.15158L9.04696 6.15147C7.34459 6.15147 5.97656 7.5347 5.97656 9.22187V13.6147L7.57259 12.0186L7.57264 9.23704Z" fill="white"/>
<path d="M15.2952 10.1794V12.9762C15.2952 13.7969 14.6263 14.4506 13.8208 14.4506H9.50396L10.416 13.5385C10.72 13.2345 10.72 12.7178 10.416 12.4137C10.112 12.1097 9.59526 12.1097 9.29118 12.4137L7.01118 14.6937C6.70721 14.9977 6.70721 15.5144 7.01118 15.8185L9.29118 18.0985C9.44323 18.2506 9.65601 18.3265 9.85356 18.3265C10.0512 18.3265 10.264 18.2504 10.4159 18.0985C10.7199 17.7945 10.7199 17.2778 10.4159 16.9737L9.50387 16.0616H13.8207C15.523 16.0616 16.8911 14.6784 16.8911 12.9912L16.8912 8.5835L15.2952 10.1794Z" fill="white"/>
</g>
<defs>
<clipPath id="clip0_585_637">
<rect width="19" height="19" fill="white" transform="translate(1.93359 3.50684)"/>
</clipPath>
</defs>
</svg>
